<?xml version="1.0" encoding="utf-8"?>
<!-- Generator: Adobe Illustrator 22.0.1, SVG Export Plug-In . SVG Version: 6.00 Build 0)  -->
<svg version="1.1" id="Layer_1" xmlns="http://www.w3.org/2000/svg" xmlns:xlink="http://www.w3.org/1999/xlink" x="0px" y="0px"
	 viewBox="0 0 491.4 483.9" style="enable-background:new 0 0 491.4 483.9;" xml:space="preserve">
<style type="text/css">
	.st0{fill:#203244;}
	.st1{fill:#3E95BE;}
</style>
<g id="mark_7_">
	<path class="st0" d="M484.8,363.3c-39.9,21.8-86.3,34.2-134.7,33.2C205,393.7,90.2,276.1,93,134.7c0.9-47.4,15.2-92,39.9-130
		C55.1,48.4,2,129,0.1,222.9c-2.8,141.4,112.9,258,257.1,260.9C352.9,485.7,437.4,437.3,484.8,363.3"/>
	<path class="st1" d="M347.2,367.1c1.9,0,2.8,0,4.7,0c38,0,74.9-9.5,108.1-26.6c19.9-33.2,31.3-72.1,31.3-113.8
		C491.4,101.5,390.9,0,265.7,0c-38.9,0-75.9,10.4-108.1,27.5c-20.9,33.2-32.3,72.1-33.2,111C121.5,261.8,222,364.3,347.2,367.1"/>
</g>
</svg>
