<?xml version="1.0" encoding="UTF-8"?>
<svg width="349px" height="349px" viewBox="0 0 349 349" version="1.1" xmlns="http://www.w3.org/2000/svg" xmlns:xlink="http://www.w3.org/1999/xlink">
    <!-- Generator: Sketch 52.6 (67491) - http://www.bohemiancoding.com/sketch -->
    <title>s-ill-blogs</title>
    <desc>Created with Sketch.</desc>
    <defs>
        <polygon id="path-1" points="0.445728231 0.17509065 108.146011 0.17509065 108.146011 48.2132932 0.445728231 48.2132932"></polygon>
        <polygon id="path-3" points="0 0.383767159 19.2839485 0.383767159 19.2839485 19.6682142 0 19.6682142"></polygon>
    </defs>
    <g id="Page-1" stroke="none" stroke-width="1" fill="none" fill-rule="evenodd">
        <g id="2_wordpress-overview-page" transform="translate(-773.000000, -2039.000000)">
            <g id="Why-WP" transform="translate(-223.000000, 1059.000000)">
                <g id="s-ill-blogs" transform="translate(996.000000, 980.000000)">
                    <polygon id="Fill-1" fill="#FFFFFF" points="266.907634 135.073394 266.907634 76.3158184 49.5590844 76.3158184 49.5590844 232.354086 82.4682401 232.354086 82.4682401 291.111208 299.81679 291.111208 299.81679 135.073394"></polygon>
                    <g id="Group-58" transform="translate(0.000000, 0.278296)">
                        <path d="M188.423148,188.856274 L188.423148,233.37816 L160.090916,205.045474 C159.717437,204.671542 159.199825,204.477098 158.672695,204.519703 C158.146018,204.559136 157.662853,204.826101 157.349657,205.251703 L145.137277,221.825259 L121.812102,198.499631 C121.438623,198.125699 120.921918,197.931255 120.393881,197.97386 C119.867204,198.013293 119.384039,198.280711 119.07039,198.70586 L109.442444,211.773524 L109.442444,188.856274 L188.423148,188.856274 Z" id="Fill-2" fill-opacity="0.4" fill="#0073EC"></path>
                        <path d="M98.2497863,142.519846 C95.7550958,142.519846 93.7331456,144.541796 93.7331456,147.036487 C93.7331456,149.530724 95.7550958,151.553127 98.2497863,151.553127 C100.744024,151.553127 102.766427,149.530724 102.766427,147.036487 C102.766427,144.541796 100.744024,142.519846 98.2497863,142.519846" id="Fill-4" fill="#0073EC"></path>
                        <path d="M116.315624,142.519846 C113.821387,142.519846 111.798983,144.541796 111.798983,147.036487 C111.798983,149.530724 113.821387,151.553127 116.315624,151.553127 C118.809861,151.553127 120.831812,149.530724 120.831812,147.036487 C120.831812,144.541796 118.809861,142.519846 116.315624,142.519846" id="Fill-6" fill="#0073EC"></path>
                        <path d="M134.381462,142.519846 C131.887225,142.519846 129.864821,144.541796 129.864821,147.036487 C129.864821,149.530724 131.887225,151.553127 134.381462,151.553127 C136.876153,151.553127 138.898103,149.530724 138.898103,147.036487 C138.898103,144.541796 136.876153,142.519846 134.381462,142.519846" id="Fill-8" fill="#0073EC"></path>
                        <path d="M84.4530692,288.725842 L84.4530692,161.505238 L295.692256,161.505238 C295.929759,161.505238 296.155025,161.45674 296.363067,161.373796 L296.363067,288.725842 L84.4530692,288.725842 Z M53.1851334,230.262879 L53.1851334,103.041822 L264.423867,103.041822 C264.661823,103.041822 264.886636,102.993324 265.094678,102.909926 L265.094678,132.688028 L82.6400673,132.688028 C81.6388371,132.688028 80.8270655,133.499799 80.8270655,134.50103 L80.8270655,230.262879 L53.1851334,230.262879 Z M265.094678,77.8506151 L265.094678,99.5472611 C264.886636,99.4647695 264.661823,99.4158184 264.423867,99.4158184 L53.1851334,99.4158184 L53.1851334,77.8506151 L265.094678,77.8506151 Z M296.363067,158.010677 C296.155025,157.928186 295.929759,157.879235 295.692256,157.879235 L84.4530692,157.879235 L84.4530692,136.314031 L296.363067,136.314031 L296.363067,158.010677 Z M298.176068,132.688028 L268.720681,132.688028 L268.720681,76.0376133 C268.720681,75.0363831 267.90891,74.2246115 266.907679,74.2246115 L51.3721316,74.2246115 C50.3709013,74.2246115 49.5591298,75.0363831 49.5591298,76.0376133 L49.5591298,232.075881 C49.5591298,233.077111 50.3709013,233.888882 51.3721316,233.888882 L80.8270655,233.888882 L80.8270655,290.538844 C80.8270655,291.540074 81.6388371,292.351845 82.6400673,292.351845 L298.176068,292.351845 C299.177299,292.351845 299.98907,291.540074 299.98907,290.538844 L299.98907,134.50103 C299.98907,133.499799 299.177299,132.688028 298.176068,132.688028 Z" id="Fill-10" fill="#0073EC"></path>
                        <path d="M66.9812613,93.088986 C69.4754986,93.088986 71.4974488,91.0670357 71.4974488,88.5727985 C71.4974488,86.0785613 69.4754986,84.0561577 66.9812613,84.0561577 C64.4870241,84.0561577 62.4646206,86.0785613 62.4646206,88.5727985 C62.4646206,91.0670357 64.4870241,93.088986 66.9812613,93.088986" id="Fill-12" fill="#0073EC"></path>
                        <path d="M85.0470992,93.088986 C87.5417897,93.088986 89.56374,91.0670357 89.56374,88.5727985 C89.56374,86.0785613 87.5417897,84.0561577 85.0470992,84.0561577 C82.552862,84.0561577 80.5304584,86.0785613 80.5304584,88.5727985 C80.5304584,91.0670357 82.552862,93.088986 85.0470992,93.088986" id="Fill-14" fill="#0073EC"></path>
                        <path d="M103.11339,93.088986 C105.607628,93.088986 107.630031,91.0670357 107.630031,88.5727985 C107.630031,86.0785613 105.607628,84.0561577 103.11339,84.0561577 C100.6187,84.0561577 98.5967495,86.0785613 98.5967495,88.5727985 C98.5967495,91.0670357 100.6187,93.088986 103.11339,93.088986" id="Fill-16" fill="#0073EC"></path>
                        <path d="M176.650602,348.549599 L132.712956,348.549599 C131.940618,348.549599 131.253037,348.060088 130.99967,347.330355 C127.772073,338.015152 118.979921,331.756669 109.121724,331.756669 C103.388559,331.756669 97.8860982,333.870176 93.6278102,337.707848 C93.1691207,338.120306 92.5327571,338.273051 91.9380925,338.110334 C91.3429746,337.94807 90.8711409,337.49482 90.6853082,336.906954 C86.5122313,323.69289 74.3923142,314.814621 60.5246633,314.814621 C43.0867586,314.814621 28.9000194,329.001813 28.9000194,346.440171 L28.9022857,346.533994 C28.9040987,346.595636 28.9068182,346.657731 28.9068182,346.72028 C28.9113507,347.203898 28.721892,347.669386 28.3819542,348.012497 C28.0411098,348.356061 27.5783411,348.549599 27.0938164,348.549599 L2.47687775,348.549599 C1.4756475,348.549599 0.663875939,347.737827 0.663875939,346.736597 C0.663875939,345.735366 1.4756475,344.923595 2.47687775,344.923595 L25.3057433,344.923595 C26.1025576,326.186221 41.5951114,311.188617 60.5246633,311.188617 C75.0975719,311.188617 87.9399702,319.985302 93.2588643,333.335794 C97.8398666,329.962704 103.380853,328.130666 109.121724,328.130666 C120.088118,328.130666 129.913682,334.826535 133.96982,344.923595 L176.650602,344.923595 C177.651832,344.923595 178.463604,345.735366 178.463604,346.736597 C178.463604,347.737827 177.651832,348.549599 176.650602,348.549599" id="Fill-18" fill-opacity="0.4" fill="#A644E5"></path>
                        <g id="Group-22" transform="translate(240.675991, 0.000000)">
                            <mask id="mask-2" fill="white">
                                <use xlink:href="#path-1"></use>
                            </mask>
                            <g id="Clip-21"></g>
                            <path d="M108.146057,0.693155918 C106.159007,0.355937581 104.123459,0.17509065 102.051651,0.17509065 C85.695202,0.17509065 71.4613248,11.2756475 67.3462639,26.8896724 C64.3729409,25.5820448 61.1417185,24.8989964 57.8769555,24.8989964 C46.2075693,24.8989964 36.5007576,33.2524022 34.6569347,44.5872896 L2.33700466,44.5872896 C1.39016447,44.5872896 0.544399119,45.279403 0.454202279,46.2221639 C0.351314426,47.3031663 1.19889277,48.2132932 2.25904558,48.2132932 L36.2170228,48.2132932 C37.1593305,48.2132932 37.9701955,47.507129 38.0572196,46.5689005 C39.0131248,36.2823815 47.5337801,28.525 57.8769555,28.525 C61.3103276,28.525 64.6992813,29.4179034 67.6789498,31.1076211 C67.9513533,31.2621795 68.2568441,31.3614413 68.5709466,31.3609881 C69.4960308,31.3609881 70.2171523,30.7178257 70.3780562,29.8901904 C73.3119464,14.772928 86.6320707,3.80109428 102.051651,3.80109428 C104.128898,3.80109428 106.165805,4.00143098 108.146057,4.3771756 L108.146057,0.693155918 Z" id="Fill-20" fill-opacity="0.4" fill="#A644E5" mask="url(#mask-2)"></path>
                        </g>
                        <path d="M338.498181,204.099042 L340.321607,207.433152 C341.356831,209.325926 342.91284,210.882388 344.805614,211.917159 L348.139724,213.740585 L344.805614,215.564465 C342.91284,216.599689 341.356831,218.156151 340.321607,220.048472 L338.498181,223.383035 L336.674754,220.048472 C335.639077,218.156151 334.083068,216.599689 332.190294,215.564465 L328.856184,213.740585 L332.190294,211.917159 C334.083068,210.882388 335.639077,209.325926 336.674754,207.433152 L338.498181,204.099042 Z" id="Fill-23" fill="#FFFFFF"></path>
                        <path d="M338.498181,204.099042 L340.321607,207.433152 C341.356831,209.325926 342.91284,210.882388 344.805614,211.917159 L348.139724,213.740585 L344.805614,215.564465 C342.91284,216.599689 341.356831,218.156151 340.321607,220.048472 L338.498181,223.383035 L336.674754,220.048472 C335.639077,218.156151 334.083068,216.599689 332.190294,215.564465 L328.856184,213.740585 L332.190294,211.917159 C334.083068,210.882388 335.639077,209.325926 336.674754,207.433152 L338.498181,204.099042 Z" id="Fill-25" fill-opacity="0.4" fill="#A644E5"></path>
                        <g id="Group-29" transform="translate(0.000000, 259.712510)">
                            <mask id="mask-4" fill="white">
                                <use xlink:href="#path-3"></use>
                            </mask>
                            <g id="Clip-28"></g>
                            <path d="M9.64195157,0.383767159 L11.4653781,3.71787749 C12.5010554,5.61065139 14.0570642,7.16711344 15.9498381,8.20233748 L19.2839485,10.0257641 L15.9498381,11.8496439 C14.0570642,12.8848679 12.5010554,14.4408767 11.4653781,16.3331974 L9.64195157,19.6682142 L7.81852499,16.3331974 C6.78330096,14.4408767 5.22729215,12.8848679 3.33451826,11.8496439 L-4.53250453e-05,10.0257641 L3.33451826,8.20233748 C5.22729215,7.16711344 6.78330096,5.61065139 7.81852499,3.71787749 L9.64195157,0.383767159 Z" id="Fill-27" fill-opacity="0.4" fill="#A644E5" mask="url(#mask-4)"></path>
                        </g>
                        <path d="M14.9088125,0.17527195 L17.3885457,4.70913623 C18.7958884,7.28269231 20.9116615,9.39846542 23.4852176,10.8058081 L28.0190818,13.2855413 L23.4852176,15.7652745 C20.9116615,17.1726172 18.7958884,19.2883903 17.3885457,21.8619464 L14.9088125,26.3958107 L12.4290793,21.8619464 C11.0217366,19.2883903 8.90596348,17.1726172 6.33240741,15.7652745 L1.79854312,13.2855413 L6.33240741,10.8058081 C8.90596348,9.39846542 11.0217366,7.28269231 12.4290793,4.70913623 L14.9088125,0.17527195 Z" id="Fill-30" fill="#FFFFFF"></path>
                        <path d="M53.4952927,28.6698588 C53.4952927,30.4864867 52.0226819,31.9586441 50.2065074,31.9586441 C48.3898796,31.9586441 46.9177221,30.4864867 46.9177221,28.6698588 C46.9177221,26.8536843 48.3898796,25.3810736 50.2065074,25.3810736 C52.0226819,25.3810736 53.4952927,26.8536843 53.4952927,28.6698588" id="Fill-32" fill="#FFFFFF"></path>
                        <path d="M14.9088125,0.17527195 L17.3885457,4.70913623 C18.7958884,7.28269231 20.9116615,9.39846542 23.4852176,10.8058081 L28.0190818,13.2855413 L23.4852176,15.7652745 C20.9116615,17.1726172 18.7958884,19.2883903 17.3885457,21.8619464 L14.9088125,26.3958107 L12.4290793,21.8619464 C11.0217366,19.2883903 8.90596348,17.1726172 6.33240741,15.7652745 L1.79854312,13.2855413 L6.33240741,10.8058081 C8.90596348,9.39846542 11.0217366,7.28269231 12.4290793,4.70913623 L14.9088125,0.17527195 Z" id="Fill-34" fill-opacity="0.4" fill="#A644E5"></path>
                        <path d="M53.4952927,28.6698588 C53.4952927,30.4864867 52.0226819,31.9586441 50.2065074,31.9586441 C48.3898796,31.9586441 46.9177221,30.4864867 46.9177221,28.6698588 C46.9177221,26.8536843 48.3898796,25.3810736 50.2065074,25.3810736 C52.0226819,25.3810736 53.4952927,26.8536843 53.4952927,28.6698588" id="Fill-36" fill-opacity="0.4" fill="#A644E5"></path>
                        <path d="M109.442489,217.886014 L120.739303,202.554364 L154.368674,236.183735 L109.442489,236.183735 L109.442489,217.886014 Z M159.496296,236.183735 L147.731274,224.41826 L159.018117,209.100207 L186.101645,236.183735 L159.496296,236.183735 Z M188.423193,188.856229 L188.423193,233.378114 L160.090961,205.045429 C159.717483,204.671497 159.19987,204.477053 158.67274,204.519658 C158.146063,204.559091 157.662898,204.826509 157.349702,205.251658 L145.137322,221.825214 L121.812147,198.500039 C121.438669,198.125654 120.921963,197.931663 120.393926,197.973815 C119.867249,198.013248 119.384084,198.280666 119.070435,198.706268 L109.442489,211.773478 L109.442489,188.856229 L188.423193,188.856229 Z M190.236195,185.230225 L107.629487,185.230225 C106.628257,185.230225 105.816485,186.041997 105.816485,187.043227 L105.816485,237.996737 C105.816485,238.997967 106.628257,239.809738 107.629487,239.809738 L190.236195,239.809738 C191.237426,239.809738 192.049197,238.997967 192.049197,237.996737 L192.049197,187.043227 C192.049197,186.041997 191.237426,185.230225 190.236195,185.230225 Z" id="Fill-38" fill="#0073EC"></path>
                        <path d="M143.142839,197.887199 C141.459466,197.887199 140.090197,199.256469 140.090197,200.939387 C140.090197,202.62276 141.459466,203.992483 143.142839,203.992483 C144.825758,203.992483 146.195027,202.62276 146.195027,200.939387 C146.195027,199.256469 144.825758,197.887199 143.142839,197.887199 M143.142839,207.618486 C139.460179,207.618486 136.464193,204.622047 136.464193,200.939387 C136.464193,197.256728 139.460179,194.261195 143.142839,194.261195 C146.825499,194.261195 149.821031,197.256728 149.821031,200.939387 C149.821031,204.622047 146.825499,207.618486 143.142839,207.618486" id="Fill-40" fill="#0073EC"></path>
                        <path d="M234.241285,189.741064 L206.448873,189.741064 C205.447643,189.741064 204.635872,188.929293 204.635872,187.928063 C204.635872,186.926832 205.447643,186.115061 206.448873,186.115061 L234.241285,186.115061 C235.242515,186.115061 236.054286,186.926832 236.054286,187.928063 C236.054286,188.929293 235.242515,189.741064 234.241285,189.741064" id="Fill-42" fill="#0073EC"></path>
                        <path d="M268.982252,203.17083 L206.448647,203.17083 C205.447416,203.17083 204.635645,202.359059 204.635645,201.357828 C204.635645,200.356598 205.447416,199.544826 206.448647,199.544826 L268.982252,199.544826 C269.983482,199.544826 270.795254,200.356598 270.795254,201.357828 C270.795254,202.359059 269.983482,203.17083 268.982252,203.17083" id="Fill-44" fill="#0073EC"></path>
                        <path d="M268.982252,216.439918 L206.448647,216.439918 C205.447416,216.439918 204.635645,215.628147 204.635645,214.626917 C204.635645,213.625686 205.447416,212.813915 206.448647,212.813915 L268.982252,212.813915 C269.983482,212.813915 270.795254,213.625686 270.795254,214.626917 C270.795254,215.628147 269.983482,216.439918 268.982252,216.439918" id="Fill-46" fill="#0073EC"></path>
                        <path d="M246.319729,229.70946 L206.448647,229.70946 C205.447416,229.70946 204.635645,228.897688 204.635645,227.896458 C204.635645,226.895228 205.447416,226.083456 206.448647,226.083456 L246.319729,226.083456 C247.32096,226.083456 248.132731,226.895228 248.132731,227.896458 C248.132731,228.897688 247.32096,229.70946 246.319729,229.70946" id="Fill-48" fill="#0073EC"></path>
                        <path d="M272.184648,256.726541 L107.629351,256.726541 C106.628121,256.726541 105.816349,255.914769 105.816349,254.913539 C105.816349,253.912309 106.628121,253.100537 107.629351,253.100537 L272.184648,253.100537 C273.185878,253.100537 273.99765,253.912309 273.99765,254.913539 C273.99765,255.914769 273.185878,256.726541 272.184648,256.726541" id="Fill-50" fill="#0073EC"></path>
                        <path d="M272.184648,269.678263 L107.629351,269.678263 C106.628121,269.678263 105.816349,268.866492 105.816349,267.865262 C105.816349,266.864031 106.628121,266.05226 107.629351,266.05226 L272.184648,266.05226 C273.185878,266.05226 273.99765,266.864031 273.99765,267.865262 C273.99765,268.866492 273.185878,269.678263 272.184648,269.678263" id="Fill-52" fill="#0073EC"></path>
                        <polygon id="Fill-54" fill-opacity="0.4" fill="#0073EC" points="266.907634 117.242703 82.640022 117.242703 66.9811254 117.242703 66.9811254 134.50112 66.9811254 232.075518 82.640022 232.075518 82.640022 134.50112 266.907634 134.50112"></polygon>
                        <path d="M143.142839,197.887199 C141.459466,197.887199 140.090197,199.256469 140.090197,200.939387 C140.090197,202.62276 141.459466,203.992483 143.142839,203.992483 C144.825758,203.992483 146.195027,202.62276 146.195027,200.939387 C146.195027,199.256469 144.825758,197.887199 143.142839,197.887199" id="Fill-56" fill="#FFFFFF"></path>
                    </g>
                </g>
            </g>
        </g>
    </g>
</svg>